replay
version=1
nRows=14
nColumns=40
inDegrees=no
endheader
time	/jointset/ground_pelvis/pelvis_tilt/value	/jointset/ground_pelvis/pelvis_list/value	/jointset/ground_pelvis/pelvis_rotation/value	/jointset/ground_pelvis/pelvis_tx/value	/jointset/ground_pelvis/pelvis_ty/value	/jointset/ground_pelvis/pelvis_tz/value	/jointset/hip_r/hip_flexion_r/value	/jointset/hip_r/hip_adduction_r/value	/jointset/hip_r/hip_rotation_r/value	/jointset/walker_knee_r/knee_angle_r/value	/jointset/patellofemoral_r/knee_angle_r_beta/value	/jointset/ankle_r/ankle_angle_r/value	/jointset/subtalar_r/subtalar_angle_r/value	/jointset/mtp_r/mtp_angle_r/value	/jointset/hip_l/hip_flexion_l/value	/jointset/hip_l/hip_adduction_l/value	/jointset/hip_l/hip_rotation_l/value	/jointset/walker_knee_l/knee_angle_l/value	/jointset/patellofemoral_l/knee_angle_l_beta/value	/jointset/ankle_l/ankle_angle_l/value	/jointset/subtalar_l/subtalar_angle_l/value	/jointset/mtp_l/mtp_angle_l/value	/jointset/back/lumbar_extension/value	/jointset/back/lumbar_bending/value	/jointset/back/lumbar_rotation/value	/jointset/acromial_r/arm_flex_r/value	/jointset/acromial_r/arm_add_r/value	/jointset/acromial_r/arm_rot_r/value	/jointset/elbow_r/elbow_flex_r/value	/jointset/radioulnar_r/pro_sup_r/value	/jointset/radius_hand_r/wrist_flex_r/value	/jointset/radius_hand_r/wrist_dev_r/value	/jointset/acromial_l/arm_flex_l/value	/jointset/acromial_l/arm_add_l/value	/jointset/acromial_l/arm_rot_l/value	/jointset/elbow_l/elbow_flex_l/value	/jointset/radioulnar_l/pro_sup_l/value	/jointset/radius_hand_l/wrist_flex_l/value	/jointset/radius_hand_l/wrist_dev_l/value
0	-0.1363105751	-0.1603116403	-0.3034291019	1.167007587	1.046732768	-0.09918548445	0.2353744546	0.1756130624	0.2358110624	0.1500206681	0.1500206681	-0.1259226279	-0.1445641893	2.229184763e-06	0.2142345886	-0.163024647	-0.1517890463	0.1679145689	0.1679145689	-0.01364378967	-0.1233570014	5.86505826e-06	0.2318851943	0.9322516879	-0.8005473443	-0.6919184383	-1.294161444	-0.9720367169	0.5836378842	0.2073568157	0.4967459271	-0.784487304	0.05337829224	0.6747985535	-0.9991891455	1.64166623	0.1955668376	-0.0001713106039	0.0001302874375
0.002777778	-0.1361810797	-0.160567795	-0.3038393472	1.167215779	1.048339676	-0.09918419492	0.2349458825	0.1754847257	0.2358531587	0.1501280746	0.1501280746	-0.1259165372	-0.1445833669	2.277877085e-06	0.2137042918	-0.1629761071	-0.1517808099	0.1680213784	0.1680213784	-0.01362448301	-0.1234218929	6.026243853e-06	0.2326533619	0.9323480863	-0.800320038	-0.6926716889	-1.29475662	-0.9714143799	0.5833709745	0.2075696339	0.4968154209	-0.7844808559	0.05366001446	0.6748956883	-0.9990938772	1.641669463	0.195566029	-0.0001625484807	0.0001340853467
0.005555556	-0.1360546553	-0.1608349509	-0.3042340125	1.167419023	1.049851838	-0.09918187024	0.2345202584	0.175364875	0.2358891166	0.1502266097	0.1502266097	-0.1259205926	-0.1446013428	2.292389483e-06	0.2131832442	-0.162944785	-0.1517466508	0.1681271054	0.1681271054	-0.01361698223	-0.1234511733	6.088722536e-06	0.233417372	0.9324420132	-0.800148502	-0.6932939175	-1.295274577	-0.9708639217	0.5831426655	0.2080096286	0.4969933329	-0.7844443739	0.05391552853	0.6749433204	-0.9990242469	1.641675345	0.1955670271	-0.000156979809	0.0001372674709
0.008333333	-0.1359315738	-0.1611112844	-0.3046092412	1.167617621	1.051262243	-0.09917855323	0.2340964508	0.1752510173	0.235925215	0.1503201722	0.1503201722	-0.1259275009	-0.1446270408	2.357037212e-06	0.2126714507	-0.1629300785	-0.1516955949	0.168230106	0.168230106	-0.01361353583	-0.123468465	6.103157831e-06	0.2341741047	0.9325279029	-0.8000200819	-0.6938105844	-1.295730075	-0.9704098145	0.5829063823	0.2085374214	0.4972178627	-0.7843634365	0.05413939943	0.6749398749	-0.9989808421	1.641689426	0.1955687412	-0.0001531785514	0.0001387271371
0.011111111	-0.1358123262	-0.1613950938	-0.3049612434	1.167811863	1.05256394	-0.09917428705	0.2336735583	0.1751408604	0.2359674969	0.1504126151	0.1504126151	-0.1259302272	-0.1446692205	2.476048777e-06	0.212169202	-0.1629315863	-0.1516364205	0.1683288902	0.1683288902	-0.01360640166	-0.123497057	6.141847844e-06	0.2349207264	0.9326004913	-0.7999224347	-0.6942507398	-1.296137588	-0.9700765012	0.5826178583	0.2090089446	0.4974310874	-0.7842233048	0.05432638108	0.6748838625	-0.9989641446	1.641717063	0.1955701224	-0.0001497758224	0.0001374121623
0.013888889	-0.1356970434	-0.1616847083	-0.3052902121	1.168001484	1.053752973	-0.09916871416	0.2332516197	0.1750336586	0.2360177138	0.1505061953	0.1505061953	-0.1259259995	-0.1447305649	2.610859524e-06	0.2116773702	-0.1629495158	-0.151572804	0.1684237058	0.1684237058	-0.01359224642	-0.1235468001	6.218349732e-06	0.2356518832	0.9326569324	-0.799852973	-0.6946417907	-1.296509968	-0.9698549017	0.5822595119	0.2093479882	0.4976072543	-0.7840379364	0.05447645445	0.6747751656	-0.9989738376	1.641758839	0.1955704584	-0.0001463452749	0.0001329825319
0.016666667	-0.135585235	-0.1619784206	-0.30560153	1.168185491	1.054829286	-0.09916094822	0.232831758	0.1749305687	0.2360721275	0.1506011009	0.1506011009	-0.1259174691	-0.1448059	2.737442881e-06	0.2111974047	-0.1629847401	-0.1515018679	0.1685169912	0.1685169912	-0.01357352591	-0.1236100503	6.27742792e-06	0.2363587285	0.9326973638	-0.7998217802	-0.6950059948	-1.296858167	-0.9696923509	0.5818469597	0.2095775332	0.49775536	-0.7838618388	0.05459632205	0.6746154177	-0.9990086414	1.641809178	0.1955694467	-0.0001436272564	0.0001260015444
0.019444444	-0.135476418	-0.1622745618	-0.3059008923	1.168362843	1.055793079	-0.09915006916	0.232415213	0.1748329177	0.2361265919	0.1506973794	0.1506973794	-0.1259076638	-0.1448895805	2.843306964e-06	0.2107308664	-0.1630382242	-0.1514202483	0.1686113716	0.1686113716	-0.01355304558	-0.1236779496	6.301812514e-06	0.2370322972	0.9327221813	-0.7998398963	-0.6953650052	-1.297193058	-0.9695340047	0.5813978405	0.209732968	0.4978823037	-0.7837543337	0.05469309314	0.6744063809	-0.9990672241	1.641862075	0.1955668037	-0.0001423989659	0.0001170971028
0.022222222	-0.135370508	-0.1625715955	-0.3061935367	1.16853257	1.056644912	-0.09913532918	0.2320034891	0.1747418521	0.2361773342	0.150794896	0.150794896	-0.1258992771	-0.1449765697	2.925922573e-06	0.2102795947	-0.163110637	-0.1513250325	0.1687090449	0.1687090449	-0.01353323209	-0.1237426932	6.311055907e-06	0.2376644198	0.9327322843	-0.7999165885	-0.6957381344	-1.297523495	-0.9693317419	0.5809283932	0.2098505221	0.4979908857	-0.7837700067	0.05477362946	0.6741510493	-0.9991476745	1.641912147	0.1955623215	-0.0001432577097	0.0001068854294
0.025	-0.1352699683	-0.1628686948	-0.3064816115	1.168694236	1.057388029	-0.09911723623	0.2315996703	0.1746569087	0.2362236842	0.1508921802	0.1508921802	-0.1258924545	-0.1450659769	2.987527233e-06	0.2098468953	-0.1632001509	-0.1512170323	0.1688087374	0.1688087374	-0.01351396806	-0.123804542	6.316957432e-06	0.2382518342	0.9327318918	-0.8000472131	-0.6961286592	-1.297843325	-0.9690817184	0.5804458877	0.2099255162	0.4980903908	-0.783909974	0.05484333098	0.6738614257	-0.9992437954	1.641958711	0.1955563972	-0.0001457943071	9.58611699e-05
0.027777778	-0.1351784026	-0.1631653328	-0.3067659224	1.16884764	1.058026872	-0.09909685621	0.2312075542	0.1745769063	0.2362664011	0.1509871738	0.1509871738	-0.1258861978	-0.1451587821	3.033148442e-06	0.2094367194	-0.1633038185	-0.1510987673	0.1689076065	0.1689076065	-0.01349399744	-0.1238673577	6.318938578e-06	0.2387934675	0.9327266966	-0.8002208628	-0.6965325341	-1.298139735	-0.9687996231	0.5799533268	0.2099365263	0.4981917079	-0.784152366	0.05490692977	0.6735535554	-0.9993474705	1.642003201	0.195549687	-0.000149152325	8.4457988e-05
0.030555556	-0.1350994302	-0.1634609682	-0.3070473205	1.168992589	1.05856589	-0.09907525005	0.2308309607	0.1745006759	0.2363062871	0.1510778301	0.1510778301	-0.1258795098	-0.145255998	3.071176083e-06	0.2090530232	-0.1634186987	-0.1509727955	0.1690027999	0.1690027999	-0.01347205467	-0.1239349801	6.315567499e-06	0.2392882745	0.9327223878	-0.8004266144	-0.6969452988	-1.298400007	-0.9685009737	0.5794532558	0.2098666005	0.4983022302	-0.7844773547	0.05496913164	0.673243501	-0.999450592	1.642047064	0.1955428352	-0.0001524709396	7.310426014e-05
0.033333333	-0.1350365638	-0.1637547189	-0.3073285359	1.16912898	1.059009924	-0.09905315853	0.230473467	0.1744274207	0.2363438636	0.151162321	0.151162321	-0.1258721111	-0.1453576857	3.103293157e-06	0.2086992229	-0.1635422691	-0.1508410426	0.1690919218	0.1690919218	-0.01344725242	-0.1240092205	6.304162414e-06	0.2397348818	0.9327239636	-0.8006562436	-0.6973580888	-1.298618482	-0.9682024731	0.5789526493	0.2097143398	0.4984227029	-0.784847167	0.05503404523	0.6729452996	-0.9995463542	1.642090937	0.1955364033	-0.0001550991144	6.222779792e-05
0.036111111	-0.1349930401	-0.1640449611	-0.30761641	1.169256917	1.05936469	-0.09903061764	0.2301380528	0.1743571381	0.2363789688	0.1512392758	0.1512392758	-0.1258653086	-0.1454617567	3.118508127e-06	0.2083774969	-0.1636729105	-0.1507039704	0.1691735949	0.1691735949	-0.0134195625	-0.1240873983	6.277296162e-06	0.2401311559	0.9327348753	-0.8009075707	-0.6977527713	-1.298805178	-0.9679233759	0.5784690199	0.2095021147	0.4985475494	-0.7851789112	0.05510445506	0.6726684612	-0.9996308404	1.642133648	0.1955307819	-0.0001568520777	5.225855239e-05
